<?xml version="1.0" standalone="no"?>
<!DOCTYPE svg PUBLIC "-//W3C//DTD SVG 20010904//EN"
 "http://www.w3.org/TR/2001/REC-SVG-20010904/DTD/svg10.dtd">
<svg version="1.0" xmlns="http://www.w3.org/2000/svg"
 width="128.000000pt" height="128.000000pt" viewBox="0 0 128.000000 128.000000"
 preserveAspectRatio="xMidYMid meet">

<g transform="translate(0.000000,128.000000) scale(0.100000,-0.100000)"
fill="#000000" stroke="none">
<path d="M982 943 c-10 -10 -115 -123 -231 -250 -117 -128 -216 -233 -220
-233 -5 0 -60 54 -122 120 -117 123 -140 137 -173 104 -37 -37 -22 -62 132
-222 81 -84 154 -152 163 -152 23 0 28 5 260 260 308 338 291 318 283 343 -13
46 -57 60 -92 30z"/>
</g>
</svg>
